<svg xmlns="http://www.w3.org/2000/svg" width="888" height="158" viewBox="0 0 888 158" font-family="-apple-system,Segoe UI,Helvetica,Arial,sans-serif">
<style>
  text.lbl { fill:#7d8590; font-size:13px; font-weight:600; }
  text.cap { fill:#e6edf3; font-size:15px; font-weight:700; }
  .c { transform-box:fill-box; transform-origin:center; opacity:0; animation:pop .55s ease-out both; }
  .g { animation:pop .55s ease-out both, flash .7s ease-out both; }
  @keyframes pop { 0%{opacity:0;transform:scale(.2)} 60%{opacity:1;transform:scale(1.1)} 100%{opacity:1;transform:scale(1)} }
  @keyframes flash { 0%{filter:brightness(2.4)} 45%{filter:brightness(2.4)} 100%{filter:brightness(1)} }
  @media (prefers-reduced-motion: reduce) { .c { opacity:1 !important; animation:none !important; } }
</style>
<rect width="888" height="158" fill="none"/>
<text class="lbl" x="34" y="16">Jul</text><text class="lbl" x="66" y="16">Aug</text><text class="lbl" x="146" y="16">Sep</text><text class="lbl" x="210" y="16">Oct</text><text class="lbl" x="274" y="16">Nov</text><text class="lbl" x="354" y="16">Dec</text><text class="lbl" x="418" y="16">Jan</text><text class="lbl" x="482" y="16">Feb</text><text class="lbl" x="546" y="16">Mar</text><text class="lbl" x="626" y="16">Apr</text><text class="lbl" x="690" y="16">May</text><text class="lbl" x="770" y="16">Jun</text><text class="lbl" x="834" y="16">Jul</text><text class="lbl" x="2" y="51">Mon</text><text class="lbl" x="2" y="83">Wed</text><text class="lbl" x="2" y="115">Fri</text>
<rect class="c e" x="34" y="24" width="13" height="13" rx="2.5" fill="#161b22" style="animation-delay:0.000s"/><rect class="c e" x="34" y="40" width="13" height="13" rx="2.5" fill="#161b22" style="animation-delay:0.036s"/><rect class="c e" x="34" y="56" width="13" height="13" rx="2.5" fill="#161b22" style="animation-delay:0.071s"/><rect class="c e" x="34" y="72" width="13" height="13" rx="2.5" fill="#161b22" style="animation-delay:0.107s"/><rect class="c e" x="34" y="88" width="13" height="13" rx="2.5" fill="#161b22" style="animation-delay:0.143s"/><rect class="c e" x="34" y="104" width="13" height="13" rx="2.5" fill="#161b22" style="animation-delay:0.179s"/><rect class="c e" x="34" y="120" width="13" height="13" rx="2.5" fill="#161b22" style="animation-delay:0.214s"/><rect class="c e" x="50" y="24" width="13" height="13" rx="2.5" fill="#161b22" style="animation-delay:0.065s"/><rect class="c e" x="50" y="40" width="13" height="13" rx="2.5" fill="#161b22" style="animation-delay:0.101s"/><rect class="c e" x="50" y="56" width="13" height="13" rx="2.5" fill="#161b22" style="animation-delay:0.136s"/><rect class="c e" x="50" y="72" width="13" height="13" rx="2.5" fill="#161b22" style="animation-delay:0.172s"/><rect class="c e" x="50" y="88" width="13" height="13" rx="2.5" fill="#161b22" style="animation-delay:0.208s"/><rect class="c e" x="50" y="104" width="13" height="13" rx="2.5" fill="#161b22" style="animation-delay:0.244s"/><rect class="c e" x="50" y="120" width="13" height="13" rx="2.5" fill="#161b22" style="animation-delay:0.279s"/><rect class="c e" x="66" y="24" width="13" height="13" rx="2.5" fill="#161b22" style="animation-delay:0.130s"/><rect class="c e" x="66" y="40" width="13" height="13" rx="2.5" fill="#161b22" style="animation-delay:0.166s"/><rect class="c e" x="66" y="56" width="13" height="13" rx="2.5" fill="#161b22" style="animation-delay:0.201s"/><rect class="c e" x="66" y="72" width="13" height="13" rx="2.5" fill="#161b22" style="animation-delay:0.237s"/><rect class="c e" x="66" y="88" width="13" height="13" rx="2.5" fill="#161b22" style="animation-delay:0.273s"/><rect class="c e" x="66" y="104" width="13" height="13" rx="2.5" fill="#161b22" style="animation-delay:0.308s"/><rect class="c e" x="66" y="120" width="13" height="13" rx="2.5" fill="#161b22" style="animation-delay:0.344s"/><rect class="c e" x="82" y="24" width="13" height="13" rx="2.5" fill="#161b22" style="animation-delay:0.195s"/><rect class="c e" x="82" y="40" width="13" height="13" rx="2.5" fill="#161b22" style="animation-delay:0.231s"/><rect class="c e" x="82" y="56" width="13" height="13" rx="2.5" fill="#161b22" style="animation-delay:0.266s"/><rect class="c e" x="82" y="72" width="13" height="13" rx="2.5" fill="#161b22" style="animation-delay:0.302s"/><rect class="c e" x="82" y="88" width="13" height="13" rx="2.5" fill="#161b22" style="animation-delay:0.338s"/><rect class="c e" x="82" y="104" width="13" height="13" rx="2.5" fill="#161b22" style="animation-delay:0.374s"/><rect class="c e" x="82" y="120" width="13" height="13" rx="2.5" fill="#161b22" style="animation-delay:0.409s"/><rect class="c e" x="98" y="24" width="13" height="13" rx="2.5" fill="#161b22" style="animation-delay:0.260s"/><rect class="c e" x="98" y="40" width="13" height="13" rx="2.5" fill="#161b22" style="animation-delay:0.296s"/><rect class="c e" x="98" y="56" width="13" height="13" rx="2.5" fill="#161b22" style="animation-delay:0.331s"/><rect class="c e" x="98" y="72" width="13" height="13" rx="2.5" fill="#161b22" style="animation-delay:0.367s"/><rect class="c e" x="98" y="88" width="13" height="13" rx="2.5" fill="#161b22" style="animation-delay:0.403s"/><rect class="c e" x="98" y="104" width="13" height="13" rx="2.5" fill="#161b22" style="animation-delay:0.439s"/><rect class="c e" x="98" y="120" width="13" height="13" rx="2.5" fill="#161b22" style="animation-delay:0.474s"/><rect class="c e" x="114" y="24" width="13" height="13" rx="2.5" fill="#161b22" style="animation-delay:0.325s"/><rect class="c e" x="114" y="40" width="13" height="13" rx="2.5" fill="#161b22" style="animation-delay:0.361s"/><rect class="c e" x="114" y="56" width="13" height="13" rx="2.5" fill="#161b22" style="animation-delay:0.396s"/><rect class="c e" x="114" y="72" width="13" height="13" rx="2.5" fill="#161b22" style="animation-delay:0.432s"/><rect class="c e" x="114" y="88" width="13" height="13" rx="2.5" fill="#161b22" style="animation-delay:0.468s"/><rect class="c e" x="114" y="104" width="13" height="13" rx="2.5" fill="#161b22" style="animation-delay:0.504s"/><rect class="c e" x="114" y="120" width="13" height="13" rx="2.5" fill="#161b22" style="animation-delay:0.539s"/><rect class="c e" x="130" y="24" width="13" height="13" rx="2.5" fill="#161b22" style="animation-delay:0.390s"/><rect class="c e" x="130" y="40" width="13" height="13" rx="2.5" fill="#161b22" style="animation-delay:0.426s"/><rect class="c e" x="130" y="56" width="13" height="13" rx="2.5" fill="#161b22" style="animation-delay:0.461s"/><rect class="c e" x="130" y="72" width="13" height="13" rx="2.5" fill="#161b22" style="animation-delay:0.497s"/><rect class="c e" x="130" y="88" width="13" height="13" rx="2.5" fill="#161b22" style="animation-delay:0.533s"/><rect class="c e" x="130" y="104" width="13" height="13" rx="2.5" fill="#161b22" style="animation-delay:0.569s"/><rect class="c e" x="130" y="120" width="13" height="13" rx="2.5" fill="#161b22" style="animation-delay:0.604s"/><rect class="c e" x="146" y="24" width="13" height="13" rx="2.5" fill="#161b22" style="animation-delay:0.455s"/><rect class="c e" x="146" y="40" width="13" height="13" rx="2.5" fill="#161b22" style="animation-delay:0.491s"/><rect class="c e" x="146" y="56" width="13" height="13" rx="2.5" fill="#161b22" style="animation-delay:0.526s"/><rect class="c e" x="146" y="72" width="13" height="13" rx="2.5" fill="#161b22" style="animation-delay:0.562s"/><rect class="c e" x="146" y="88" width="13" height="13" rx="2.5" fill="#161b22" style="animation-delay:0.598s"/><rect class="c e" x="146" y="104" width="13" height="13" rx="2.5" fill="#161b22" style="animation-delay:0.634s"/><rect class="c e" x="146" y="120" width="13" height="13" rx="2.5" fill="#161b22" style="animation-delay:0.669s"/><rect class="c e" x="162" y="24" width="13" height="13" rx="2.5" fill="#161b22" style="animation-delay:0.520s"/><rect class="c e" x="162" y="40" width="13" height="13" rx="2.5" fill="#161b22" style="animation-delay:0.556s"/><rect class="c e" x="162" y="56" width="13" height="13" rx="2.5" fill="#161b22" style="animation-delay:0.591s"/><rect class="c e" x="162" y="72" width="13" height="13" rx="2.5" fill="#161b22" style="animation-delay:0.627s"/><rect class="c e" x="162" y="88" width="13" height="13" rx="2.5" fill="#161b22" style="animation-delay:0.663s"/><rect class="c e" x="162" y="104" width="13" height="13" rx="2.5" fill="#161b22" style="animation-delay:0.699s"/><rect class="c e" x="162" y="120" width="13" height="13" rx="2.5" fill="#161b22" style="animation-delay:0.734s"/><rect class="c e" x="178" y="24" width="13" height="13" rx="2.5" fill="#161b22" style="animation-delay:0.585s"/><rect class="c e" x="178" y="40" width="13" height="13" rx="2.5" fill="#161b22" style="animation-delay:0.621s"/><rect class="c e" x="178" y="56" width="13" height="13" rx="2.5" fill="#161b22" style="animation-delay:0.656s"/><rect class="c e" x="178" y="72" width="13" height="13" rx="2.5" fill="#161b22" style="animation-delay:0.692s"/><rect class="c e" x="178" y="88" width="13" height="13" rx="2.5" fill="#161b22" style="animation-delay:0.728s"/><rect class="c e" x="178" y="104" width="13" height="13" rx="2.5" fill="#161b22" style="animation-delay:0.763s"/><rect class="c e" x="178" y="120" width="13" height="13" rx="2.5" fill="#161b22" style="animation-delay:0.799s"/><rect class="c e" x="194" y="24" width="13" height="13" rx="2.5" fill="#161b22" style="animation-delay:0.650s"/><rect class="c e" x="194" y="40" width="13" height="13" rx="2.5" fill="#161b22" style="animation-delay:0.686s"/><rect class="c e" x="194" y="56" width="13" height="13" rx="2.5" fill="#161b22" style="animation-delay:0.721s"/><rect class="c e" x="194" y="72" width="13" height="13" rx="2.5" fill="#161b22" style="animation-delay:0.757s"/><rect class="c e" x="194" y="88" width="13" height="13" rx="2.5" fill="#161b22" style="animation-delay:0.793s"/><rect class="c e" x="194" y="104" width="13" height="13" rx="2.5" fill="#161b22" style="animation-delay:0.829s"/><rect class="c e" x="194" y="120" width="13" height="13" rx="2.5" fill="#161b22" style="animation-delay:0.864s"/><rect class="c e" x="210" y="24" width="13" height="13" rx="2.5" fill="#161b22" style="animation-delay:0.715s"/><rect class="c e" x="210" y="40" width="13" height="13" rx="2.5" fill="#161b22" style="animation-delay:0.751s"/><rect class="c e" x="210" y="56" width="13" height="13" rx="2.5" fill="#161b22" style="animation-delay:0.786s"/><rect class="c e" x="210" y="72" width="13" height="13" rx="2.5" fill="#161b22" style="animation-delay:0.822s"/><rect class="c e" x="210" y="88" width="13" height="13" rx="2.5" fill="#161b22" style="animation-delay:0.858s"/><rect class="c e" x="210" y="104" width="13" height="13" rx="2.5" fill="#161b22" style="animation-delay:0.894s"/><rect class="c e" x="210" y="120" width="13" height="13" rx="2.5" fill="#161b22" style="animation-delay:0.929s"/><rect class="c e" x="226" y="24" width="13" height="13" rx="2.5" fill="#161b22" style="animation-delay:0.780s"/><rect class="c e" x="226" y="40" width="13" height="13" rx="2.5" fill="#161b22" style="animation-delay:0.816s"/><rect class="c e" x="226" y="56" width="13" height="13" rx="2.5" fill="#161b22" style="animation-delay:0.851s"/><rect class="c e" x="226" y="72" width="13" height="13" rx="2.5" fill="#161b22" style="animation-delay:0.887s"/><rect class="c e" x="226" y="88" width="13" height="13" rx="2.5" fill="#161b22" style="animation-delay:0.923s"/><rect class="c e" x="226" y="104" width="13" height="13" rx="2.5" fill="#161b22" style="animation-delay:0.959s"/><rect class="c e" x="226" y="120" width="13" height="13" rx="2.5" fill="#161b22" style="animation-delay:0.994s"/><rect class="c e" x="242" y="24" width="13" height="13" rx="2.5" fill="#161b22" style="animation-delay:0.845s"/><rect class="c e" x="242" y="40" width="13" height="13" rx="2.5" fill="#161b22" style="animation-delay:0.881s"/><rect class="c e" x="242" y="56" width="13" height="13" rx="2.5" fill="#161b22" style="animation-delay:0.916s"/><rect class="c e" x="242" y="72" width="13" height="13" rx="2.5" fill="#161b22" style="animation-delay:0.952s"/><rect class="c e" x="242" y="88" width="13" height="13" rx="2.5" fill="#161b22" style="animation-delay:0.988s"/><rect class="c e" x="242" y="104" width="13" height="13" rx="2.5" fill="#161b22" style="animation-delay:1.024s"/><rect class="c e" x="242" y="120" width="13" height="13" rx="2.5" fill="#161b22" style="animation-delay:1.059s"/><rect class="c e" x="258" y="24" width="13" height="13" rx="2.5" fill="#161b22" style="animation-delay:0.910s"/><rect class="c e" x="258" y="40" width="13" height="13" rx="2.5" fill="#161b22" style="animation-delay:0.946s"/><rect class="c e" x="258" y="56" width="13" height="13" rx="2.5" fill="#161b22" style="animation-delay:0.981s"/><rect class="c e" x="258" y="72" width="13" height="13" rx="2.5" fill="#161b22" style="animation-delay:1.017s"/><rect class="c e" x="258" y="88" width="13" height="13" rx="2.5" fill="#161b22" style="animation-delay:1.053s"/><rect class="c e" x="258" y="104" width="13" height="13" rx="2.5" fill="#161b22" style="animation-delay:1.089s"/><rect class="c e" x="258" y="120" width="13" height="13" rx="2.5" fill="#161b22" style="animation-delay:1.124s"/><rect class="c e" x="274" y="24" width="13" height="13" rx="2.5" fill="#161b22" style="animation-delay:0.975s"/><rect class="c e" x="274" y="40" width="13" height="13" rx="2.5" fill="#161b22" style="animation-delay:1.011s"/><rect class="c e" x="274" y="56" width="13" height="13" rx="2.5" fill="#161b22" style="animation-delay:1.046s"/><rect class="c e" x="274" y="72" width="13" height="13" rx="2.5" fill="#161b22" style="animation-delay:1.082s"/><rect class="c e" x="274" y="88" width="13" height="13" rx="2.5" fill="#161b22" style="animation-delay:1.118s"/><rect class="c e" x="274" y="104" width="13" height="13" rx="2.5" fill="#161b22" style="animation-delay:1.154s"/><rect class="c e" x="274" y="120" width="13" height="13" rx="2.5" fill="#161b22" style="animation-delay:1.189s"/><rect class="c e" x="290" y="24" width="13" height="13" rx="2.5" fill="#161b22" style="animation-delay:1.040s"/><rect class="c e" x="290" y="40" width="13" height="13" rx="2.5" fill="#161b22" style="animation-delay:1.076s"/><rect class="c e" x="290" y="56" width="13" height="13" rx="2.5" fill="#161b22" style="animation-delay:1.111s"/><rect class="c e" x="290" y="72" width="13" height="13" rx="2.5" fill="#161b22" style="animation-delay:1.147s"/><rect class="c e" x="290" y="88" width="13" height="13" rx="2.5" fill="#161b22" style="animation-delay:1.183s"/><rect class="c e" x="290" y="104" width="13" height="13" rx="2.5" fill="#161b22" style="animation-delay:1.219s"/><rect class="c e" x="290" y="120" width="13" height="13" rx="2.5" fill="#161b22" style="animation-delay:1.254s"/><rect class="c e" x="306" y="24" width="13" height="13" rx="2.5" fill="#161b22" style="animation-delay:1.105s"/><rect class="c e" x="306" y="40" width="13" height="13" rx="2.5" fill="#161b22" style="animation-delay:1.141s"/><rect class="c e" x="306" y="56" width="13" height="13" rx="2.5" fill="#161b22" style="animation-delay:1.176s"/><rect class="c e" x="306" y="72" width="13" height="13" rx="2.5" fill="#161b22" style="animation-delay:1.212s"/><rect class="c e" x="306" y="88" width="13" height="13" rx="2.5" fill="#161b22" style="animation-delay:1.248s"/><rect class="c e" x="306" y="104" width="13" height="13" rx="2.5" fill="#161b22" style="animation-delay:1.284s"/><rect class="c e" x="306" y="120" width="13" height="13" rx="2.5" fill="#161b22" style="animation-delay:1.319s"/><rect class="c e" x="322" y="24" width="13" height="13" rx="2.5" fill="#161b22" style="animation-delay:1.170s"/><rect class="c e" x="322" y="40" width="13" height="13" rx="2.5" fill="#161b22" style="animation-delay:1.206s"/><rect class="c e" x="322" y="56" width="13" height="13" rx="2.5" fill="#161b22" style="animation-delay:1.241s"/><rect class="c e" x="322" y="72" width="13" height="13" rx="2.5" fill="#161b22" style="animation-delay:1.277s"/><rect class="c e" x="322" y="88" width="13" height="13" rx="2.5" fill="#161b22" style="animation-delay:1.313s"/><rect class="c e" x="322" y="104" width="13" height="13" rx="2.5" fill="#161b22" style="animation-delay:1.349s"/><rect class="c e" x="322" y="120" width="13" height="13" rx="2.5" fill="#161b22" style="animation-delay:1.384s"/><rect class="c e" x="338" y="24" width="13" height="13" rx="2.5" fill="#161b22" style="animation-delay:1.235s"/><rect class="c e" x="338" y="40" width="13" height="13" rx="2.5" fill="#161b22" style="animation-delay:1.271s"/><rect class="c e" x="338" y="56" width="13" height="13" rx="2.5" fill="#161b22" style="animation-delay:1.306s"/><rect class="c e" x="338" y="72" width="13" height="13" rx="2.5" fill="#161b22" style="animation-delay:1.342s"/><rect class="c e" x="338" y="88" width="13" height="13" rx="2.5" fill="#161b22" style="animation-delay:1.378s"/><rect class="c e" x="338" y="104" width="13" height="13" rx="2.5" fill="#161b22" style="animation-delay:1.414s"/><rect class="c e" x="338" y="120" width="13" height="13" rx="2.5" fill="#161b22" style="animation-delay:1.449s"/><rect class="c e" x="354" y="24" width="13" height="13" rx="2.5" fill="#161b22" style="animation-delay:1.300s"/><rect class="c e" x="354" y="40" width="13" height="13" rx="2.5" fill="#161b22" style="animation-delay:1.336s"/><rect class="c e" x="354" y="56" width="13" height="13" rx="2.5" fill="#161b22" style="animation-delay:1.371s"/><rect class="c e" x="354" y="72" width="13" height="13" rx="2.5" fill="#161b22" style="animation-delay:1.407s"/><rect class="c e" x="354" y="88" width="13" height="13" rx="2.5" fill="#161b22" style="animation-delay:1.443s"/><rect class="c e" x="354" y="104" width="13" height="13" rx="2.5" fill="#161b22" style="animation-delay:1.479s"/><rect class="c e" x="354" y="120" width="13" height="13" rx="2.5" fill="#161b22" style="animation-delay:1.514s"/><rect class="c e" x="370" y="24" width="13" height="13" rx="2.5" fill="#161b22" style="animation-delay:1.365s"/><rect class="c e" x="370" y="40" width="13" height="13" rx="2.5" fill="#161b22" style="animation-delay:1.401s"/><rect class="c e" x="370" y="56" width="13" height="13" rx="2.5" fill="#161b22" style="animation-delay:1.436s"/><rect class="c e" x="370" y="72" width="13" height="13" rx="2.5" fill="#161b22" style="animation-delay:1.472s"/><rect class="c e" x="370" y="88" width="13" height="13" rx="2.5" fill="#161b22" style="animation-delay:1.508s"/><rect class="c e" x="370" y="104" width="13" height="13" rx="2.5" fill="#161b22" style="animation-delay:1.544s"/><rect class="c e" x="370" y="120" width="13" height="13" rx="2.5" fill="#161b22" style="animation-delay:1.579s"/><rect class="c e" x="386" y="24" width="13" height="13" rx="2.5" fill="#161b22" style="animation-delay:1.430s"/><rect class="c e" x="386" y="40" width="13" height="13" rx="2.5" fill="#161b22" style="animation-delay:1.466s"/><rect class="c e" x="386" y="56" width="13" height="13" rx="2.5" fill="#161b22" style="animation-delay:1.501s"/><rect class="c e" x="386" y="72" width="13" height="13" rx="2.5" fill="#161b22" style="animation-delay:1.537s"/><rect class="c e" x="386" y="88" width="13" height="13" rx="2.5" fill="#161b22" style="animation-delay:1.573s"/><rect class="c e" x="386" y="104" width="13" height="13" rx="2.5" fill="#161b22" style="animation-delay:1.609s"/><rect class="c e" x="386" y="120" width="13" height="13" rx="2.5" fill="#161b22" style="animation-delay:1.644s"/><rect class="c e" x="402" y="24" width="13" height="13" rx="2.5" fill="#161b22" style="animation-delay:1.495s"/><rect class="c e" x="402" y="40" width="13" height="13" rx="2.5" fill="#161b22" style="animation-delay:1.531s"/><rect class="c e" x="402" y="56" width="13" height="13" rx="2.5" fill="#161b22" style="animation-delay:1.566s"/><rect class="c e" x="402" y="72" width="13" height="13" rx="2.5" fill="#161b22" style="animation-delay:1.602s"/><rect class="c e" x="402" y="88" width="13" height="13" rx="2.5" fill="#161b22" style="animation-delay:1.638s"/><rect class="c e" x="402" y="104" width="13" height="13" rx="2.5" fill="#161b22" style="animation-delay:1.674s"/><rect class="c e" x="402" y="120" width="13" height="13" rx="2.5" fill="#161b22" style="animation-delay:1.709s"/><rect class="c e" x="418" y="24" width="13" height="13" rx="2.5" fill="#161b22" style="animation-delay:1.560s"/><rect class="c e" x="418" y="40" width="13" height="13" rx="2.5" fill="#161b22" style="animation-delay:1.596s"/><rect class="c e" x="418" y="56" width="13" height="13" rx="2.5" fill="#161b22" style="animation-delay:1.631s"/><rect class="c e" x="418" y="72" width="13" height="13" rx="2.5" fill="#161b22" style="animation-delay:1.667s"/><rect class="c e" x="418" y="88" width="13" height="13" rx="2.5" fill="#161b22" style="animation-delay:1.703s"/><rect class="c e" x="418" y="104" width="13" height="13" rx="2.5" fill="#161b22" style="animation-delay:1.739s"/><rect class="c e" x="418" y="120" width="13" height="13" rx="2.5" fill="#161b22" style="animation-delay:1.774s"/><rect class="c e" x="434" y="24" width="13" height="13" rx="2.5" fill="#161b22" style="animation-delay:1.625s"/><rect class="c e" x="434" y="40" width="13" height="13" rx="2.5" fill="#161b22" style="animation-delay:1.661s"/><rect class="c e" x="434" y="56" width="13" height="13" rx="2.5" fill="#161b22" style="animation-delay:1.696s"/><rect class="c e" x="434" y="72" width="13" height="13" rx="2.5" fill="#161b22" style="animation-delay:1.732s"/><rect class="c e" x="434" y="88" width="13" height="13" rx="2.5" fill="#161b22" style="animation-delay:1.768s"/><rect class="c e" x="434" y="104" width="13" height="13" rx="2.5" fill="#161b22" style="animation-delay:1.804s"/><rect class="c e" x="434" y="120" width="13" height="13" rx="2.5" fill="#161b22" style="animation-delay:1.839s"/><rect class="c e" x="450" y="24" width="13" height="13" rx="2.5" fill="#161b22" style="animation-delay:1.690s"/><rect class="c e" x="450" y="40" width="13" height="13" rx="2.5" fill="#161b22" style="animation-delay:1.726s"/><rect class="c e" x="450" y="56" width="13" height="13" rx="2.5" fill="#161b22" style="animation-delay:1.761s"/><rect class="c e" x="450" y="72" width="13" height="13" rx="2.5" fill="#161b22" style="animation-delay:1.797s"/><rect class="c e" x="450" y="88" width="13" height="13" rx="2.5" fill="#161b22" style="animation-delay:1.833s"/><rect class="c e" x="450" y="104" width="13" height="13" rx="2.5" fill="#161b22" style="animation-delay:1.869s"/><rect class="c e" x="450" y="120" width="13" height="13" rx="2.5" fill="#161b22" style="animation-delay:1.904s"/><rect class="c e" x="466" y="24" width="13" height="13" rx="2.5" fill="#161b22" style="animation-delay:1.755s"/><rect class="c e" x="466" y="40" width="13" height="13" rx="2.5" fill="#161b22" style="animation-delay:1.791s"/><rect class="c e" x="466" y="56" width="13" height="13" rx="2.5" fill="#161b22" style="animation-delay:1.826s"/><rect class="c e" x="466" y="72" width="13" height="13" rx="2.5" fill="#161b22" style="animation-delay:1.862s"/><rect class="c e" x="466" y="88" width="13" height="13" rx="2.5" fill="#161b22" style="animation-delay:1.898s"/><rect class="c e" x="466" y="104" width="13" height="13" rx="2.5" fill="#161b22" style="animation-delay:1.934s"/><rect class="c e" x="466" y="120" width="13" height="13" rx="2.5" fill="#161b22" style="animation-delay:1.969s"/><rect class="c e" x="482" y="24" width="13" height="13" rx="2.5" fill="#161b22" style="animation-delay:1.820s"/><rect class="c e" x="482" y="40" width="13" height="13" rx="2.5" fill="#161b22" style="animation-delay:1.856s"/><rect class="c e" x="482" y="56" width="13" height="13" rx="2.5" fill="#161b22" style="animation-delay:1.891s"/><rect class="c e" x="482" y="72" width="13" height="13" rx="2.5" fill="#161b22" style="animation-delay:1.927s"/><rect class="c e" x="482" y="88" width="13" height="13" rx="2.5" fill="#161b22" style="animation-delay:1.963s"/><rect class="c e" x="482" y="104" width="13" height="13" rx="2.5" fill="#161b22" style="animation-delay:1.999s"/><rect class="c e" x="482" y="120" width="13" height="13" rx="2.5" fill="#161b22" style="animation-delay:2.034s"/><rect class="c e" x="498" y="24" width="13" height="13" rx="2.5" fill="#161b22" style="animation-delay:1.885s"/><rect class="c e" x="498" y="40" width="13" height="13" rx="2.5" fill="#161b22" style="animation-delay:1.921s"/><rect class="c e" x="498" y="56" width="13" height="13" rx="2.5" fill="#161b22" style="animation-delay:1.956s"/><rect class="c e" x="498" y="72" width="13" height="13" rx="2.5" fill="#161b22" style="animation-delay:1.992s"/><rect class="c e" x="498" y="88" width="13" height="13" rx="2.5" fill="#161b22" style="animation-delay:2.028s"/><rect class="c e" x="498" y="104" width="13" height="13" rx="2.5" fill="#161b22" style="animation-delay:2.063s"/><rect class="c e" x="498" y="120" width="13" height="13" rx="2.5" fill="#161b22" style="animation-delay:2.099s"/><rect class="c e" x="514" y="24" width="13" height="13" rx="2.5" fill="#161b22" style="animation-delay:1.950s"/><rect class="c e" x="514" y="40" width="13" height="13" rx="2.5" fill="#161b22" style="animation-delay:1.986s"/><rect class="c e" x="514" y="56" width="13" height="13" rx="2.5" fill="#161b22" style="animation-delay:2.021s"/><rect class="c e" x="514" y="72" width="13" height="13" rx="2.5" fill="#161b22" style="animation-delay:2.057s"/><rect class="c e" x="514" y="88" width="13" height="13" rx="2.5" fill="#161b22" style="animation-delay:2.093s"/><rect class="c e" x="514" y="104" width="13" height="13" rx="2.5" fill="#161b22" style="animation-delay:2.129s"/><rect class="c e" x="514" y="120" width="13" height="13" rx="2.5" fill="#161b22" style="animation-delay:2.164s"/><rect class="c e" x="530" y="24" width="13" height="13" rx="2.5" fill="#161b22" style="animation-delay:2.015s"/><rect class="c e" x="530" y="40" width="13" height="13" rx="2.5" fill="#161b22" style="animation-delay:2.051s"/><rect class="c e" x="530" y="56" width="13" height="13" rx="2.5" fill="#161b22" style="animation-delay:2.086s"/><rect class="c e" x="530" y="72" width="13" height="13" rx="2.5" fill="#161b22" style="animation-delay:2.122s"/><rect class="c e" x="530" y="88" width="13" height="13" rx="2.5" fill="#161b22" style="animation-delay:2.158s"/><rect class="c e" x="530" y="104" width="13" height="13" rx="2.5" fill="#161b22" style="animation-delay:2.194s"/><rect class="c e" x="530" y="120" width="13" height="13" rx="2.5" fill="#161b22" style="animation-delay:2.229s"/><rect class="c e" x="546" y="24" width="13" height="13" rx="2.5" fill="#161b22" style="animation-delay:2.080s"/><rect class="c e" x="546" y="40" width="13" height="13" rx="2.5" fill="#161b22" style="animation-delay:2.116s"/><rect class="c e" x="546" y="56" width="13" height="13" rx="2.5" fill="#161b22" style="animation-delay:2.151s"/><rect class="c e" x="546" y="72" width="13" height="13" rx="2.5" fill="#161b22" style="animation-delay:2.187s"/><rect class="c e" x="546" y="88" width="13" height="13" rx="2.5" fill="#161b22" style="animation-delay:2.223s"/><rect class="c e" x="546" y="104" width="13" height="13" rx="2.5" fill="#161b22" style="animation-delay:2.259s"/><rect class="c e" x="546" y="120" width="13" height="13" rx="2.5" fill="#161b22" style="animation-delay:2.294s"/><rect class="c e" x="562" y="24" width="13" height="13" rx="2.5" fill="#161b22" style="animation-delay:2.145s"/><rect class="c e" x="562" y="40" width="13" height="13" rx="2.5" fill="#161b22" style="animation-delay:2.181s"/><rect class="c e" x="562" y="56" width="13" height="13" rx="2.5" fill="#161b22" style="animation-delay:2.216s"/><rect class="c e" x="562" y="72" width="13" height="13" rx="2.5" fill="#161b22" style="animation-delay:2.252s"/><rect class="c e" x="562" y="88" width="13" height="13" rx="2.5" fill="#161b22" style="animation-delay:2.288s"/><rect class="c e" x="562" y="104" width="13" height="13" rx="2.5" fill="#161b22" style="animation-delay:2.324s"/><rect class="c e" x="562" y="120" width="13" height="13" rx="2.5" fill="#161b22" style="animation-delay:2.359s"/><rect class="c e" x="578" y="24" width="13" height="13" rx="2.5" fill="#161b22" style="animation-delay:2.210s"/><rect class="c e" x="578" y="40" width="13" height="13" rx="2.5" fill="#161b22" style="animation-delay:2.246s"/><rect class="c e" x="578" y="56" width="13" height="13" rx="2.5" fill="#161b22" style="animation-delay:2.281s"/><rect class="c e" x="578" y="72" width="13" height="13" rx="2.5" fill="#161b22" style="animation-delay:2.317s"/><rect class="c e" x="578" y="88" width="13" height="13" rx="2.5" fill="#161b22" style="animation-delay:2.353s"/><rect class="c e" x="578" y="104" width="13" height="13" rx="2.5" fill="#161b22" style="animation-delay:2.389s"/><rect class="c e" x="578" y="120" width="13" height="13" rx="2.5" fill="#161b22" style="animation-delay:2.424s"/><rect class="c e" x="594" y="24" width="13" height="13" rx="2.5" fill="#161b22" style="animation-delay:2.275s"/><rect class="c e" x="594" y="40" width="13" height="13" rx="2.5" fill="#161b22" style="animation-delay:2.311s"/><rect class="c e" x="594" y="56" width="13" height="13" rx="2.5" fill="#161b22" style="animation-delay:2.346s"/><rect class="c e" x="594" y="72" width="13" height="13" rx="2.5" fill="#161b22" style="animation-delay:2.382s"/><rect class="c e" x="594" y="88" width="13" height="13" rx="2.5" fill="#161b22" style="animation-delay:2.418s"/><rect class="c e" x="594" y="104" width="13" height="13" rx="2.5" fill="#161b22" style="animation-delay:2.454s"/><rect class="c e" x="594" y="120" width="13" height="13" rx="2.5" fill="#161b22" style="animation-delay:2.489s"/><rect class="c e" x="610" y="24" width="13" height="13" rx="2.5" fill="#161b22" style="animation-delay:2.340s"/><rect class="c e" x="610" y="40" width="13" height="13" rx="2.5" fill="#161b22" style="animation-delay:2.376s"/><rect class="c e" x="610" y="56" width="13" height="13" rx="2.5" fill="#161b22" style="animation-delay:2.411s"/><rect class="c e" x="610" y="72" width="13" height="13" rx="2.5" fill="#161b22" style="animation-delay:2.447s"/><rect class="c e" x="610" y="88" width="13" height="13" rx="2.5" fill="#161b22" style="animation-delay:2.483s"/><rect class="c e" x="610" y="104" width="13" height="13" rx="2.5" fill="#161b22" style="animation-delay:2.518s"/><rect class="c e" x="610" y="120" width="13" height="13" rx="2.5" fill="#161b22" style="animation-delay:2.554s"/><rect class="c e" x="626" y="24" width="13" height="13" rx="2.5" fill="#161b22" style="animation-delay:2.405s"/><rect class="c e" x="626" y="40" width="13" height="13" rx="2.5" fill="#161b22" style="animation-delay:2.441s"/><rect class="c e" x="626" y="56" width="13" height="13" rx="2.5" fill="#161b22" style="animation-delay:2.476s"/><rect class="c e" x="626" y="72" width="13" height="13" rx="2.5" fill="#161b22" style="animation-delay:2.512s"/><rect class="c e" x="626" y="88" width="13" height="13" rx="2.5" fill="#161b22" style="animation-delay:2.548s"/><rect class="c e" x="626" y="104" width="13" height="13" rx="2.5" fill="#161b22" style="animation-delay:2.584s"/><rect class="c e" x="626" y="120" width="13" height="13" rx="2.5" fill="#161b22" style="animation-delay:2.619s"/><rect class="c e" x="642" y="24" width="13" height="13" rx="2.5" fill="#161b22" style="animation-delay:2.470s"/><rect class="c g" x="642" y="40" width="13" height="13" rx="2.5" fill="#0e4429" style="animation-delay:2.506s"/><rect class="c g" x="642" y="56" width="13" height="13" rx="2.5" fill="#26a641" style="animation-delay:2.541s"/><rect class="c e" x="642" y="72" width="13" height="13" rx="2.5" fill="#161b22" style="animation-delay:2.577s"/><rect class="c e" x="642" y="88" width="13" height="13" rx="2.5" fill="#161b22" style="animation-delay:2.613s"/><rect class="c e" x="642" y="104" width="13" height="13" rx="2.5" fill="#161b22" style="animation-delay:2.649s"/><rect class="c e" x="642" y="120" width="13" height="13" rx="2.5" fill="#161b22" style="animation-delay:2.684s"/><rect class="c e" x="658" y="24" width="13" height="13" rx="2.5" fill="#161b22" style="animation-delay:2.535s"/><rect class="c e" x="658" y="40" width="13" height="13" rx="2.5" fill="#161b22" style="animation-delay:2.571s"/><rect class="c e" x="658" y="56" width="13" height="13" rx="2.5" fill="#161b22" style="animation-delay:2.606s"/><rect class="c e" x="658" y="72" width="13" height="13" rx="2.5" fill="#161b22" style="animation-delay:2.642s"/><rect class="c e" x="658" y="88" width="13" height="13" rx="2.5" fill="#161b22" style="animation-delay:2.678s"/><rect class="c e" x="658" y="104" width="13" height="13" rx="2.5" fill="#161b22" style="animation-delay:2.714s"/><rect class="c g" x="658" y="120" width="13" height="13" rx="2.5" fill="#0e4429" style="animation-delay:2.749s"/><rect class="c e" x="674" y="24" width="13" height="13" rx="2.5" fill="#161b22" style="animation-delay:2.600s"/><rect class="c e" x="674" y="40" width="13" height="13" rx="2.5" fill="#161b22" style="animation-delay:2.636s"/><rect class="c e" x="674" y="56" width="13" height="13" rx="2.5" fill="#161b22" style="animation-delay:2.671s"/><rect class="c e" x="674" y="72" width="13" height="13" rx="2.5" fill="#161b22" style="animation-delay:2.707s"/><rect class="c e" x="674" y="88" width="13" height="13" rx="2.5" fill="#161b22" style="animation-delay:2.743s"/><rect class="c e" x="674" y="104" width="13" height="13" rx="2.5" fill="#161b22" style="animation-delay:2.779s"/><rect class="c e" x="674" y="120" width="13" height="13" rx="2.5" fill="#161b22" style="animation-delay:2.814s"/><rect class="c e" x="690" y="24" width="13" height="13" rx="2.5" fill="#161b22" style="animation-delay:2.665s"/><rect class="c e" x="690" y="40" width="13" height="13" rx="2.5" fill="#161b22" style="animation-delay:2.701s"/><rect class="c e" x="690" y="56" width="13" height="13" rx="2.5" fill="#161b22" style="animation-delay:2.736s"/><rect class="c e" x="690" y="72" width="13" height="13" rx="2.5" fill="#161b22" style="animation-delay:2.772s"/><rect class="c e" x="690" y="88" width="13" height="13" rx="2.5" fill="#161b22" style="animation-delay:2.808s"/><rect class="c e" x="690" y="104" width="13" height="13" rx="2.5" fill="#161b22" style="animation-delay:2.844s"/><rect class="c e" x="690" y="120" width="13" height="13" rx="2.5" fill="#161b22" style="animation-delay:2.879s"/><rect class="c e" x="706" y="24" width="13" height="13" rx="2.5" fill="#161b22" style="animation-delay:2.730s"/><rect class="c e" x="706" y="40" width="13" height="13" rx="2.5" fill="#161b22" style="animation-delay:2.766s"/><rect class="c e" x="706" y="56" width="13" height="13" rx="2.5" fill="#161b22" style="animation-delay:2.801s"/><rect class="c e" x="706" y="72" width="13" height="13" rx="2.5" fill="#161b22" style="animation-delay:2.837s"/><rect class="c e" x="706" y="88" width="13" height="13" rx="2.5" fill="#161b22" style="animation-delay:2.873s"/><rect class="c e" x="706" y="104" width="13" height="13" rx="2.5" fill="#161b22" style="animation-delay:2.909s"/><rect class="c e" x="706" y="120" width="13" height="13" rx="2.5" fill="#161b22" style="animation-delay:2.944s"/><rect class="c e" x="722" y="24" width="13" height="13" rx="2.5" fill="#161b22" style="animation-delay:2.795s"/><rect class="c e" x="722" y="40" width="13" height="13" rx="2.5" fill="#161b22" style="animation-delay:2.831s"/><rect class="c e" x="722" y="56" width="13" height="13" rx="2.5" fill="#161b22" style="animation-delay:2.866s"/><rect class="c e" x="722" y="72" width="13" height="13" rx="2.5" fill="#161b22" style="animation-delay:2.902s"/><rect class="c e" x="722" y="88" width="13" height="13" rx="2.5" fill="#161b22" style="animation-delay:2.938s"/><rect class="c e" x="722" y="104" width="13" height="13" rx="2.5" fill="#161b22" style="animation-delay:2.974s"/><rect class="c e" x="722" y="120" width="13" height="13" rx="2.5" fill="#161b22" style="animation-delay:3.009s"/><rect class="c e" x="738" y="24" width="13" height="13" rx="2.5" fill="#161b22" style="animation-delay:2.860s"/><rect class="c e" x="738" y="40" width="13" height="13" rx="2.5" fill="#161b22" style="animation-delay:2.896s"/><rect class="c e" x="738" y="56" width="13" height="13" rx="2.5" fill="#161b22" style="animation-delay:2.931s"/><rect class="c e" x="738" y="72" width="13" height="13" rx="2.5" fill="#161b22" style="animation-delay:2.967s"/><rect class="c e" x="738" y="88" width="13" height="13" rx="2.5" fill="#161b22" style="animation-delay:3.003s"/><rect class="c e" x="738" y="104" width="13" height="13" rx="2.5" fill="#161b22" style="animation-delay:3.039s"/><rect class="c e" x="738" y="120" width="13" height="13" rx="2.5" fill="#161b22" style="animation-delay:3.074s"/><rect class="c e" x="754" y="24" width="13" height="13" rx="2.5" fill="#161b22" style="animation-delay:2.925s"/><rect class="c e" x="754" y="40" width="13" height="13" rx="2.5" fill="#161b22" style="animation-delay:2.961s"/><rect class="c e" x="754" y="56" width="13" height="13" rx="2.5" fill="#161b22" style="animation-delay:2.996s"/><rect class="c e" x="754" y="72" width="13" height="13" rx="2.5" fill="#161b22" style="animation-delay:3.032s"/><rect class="c e" x="754" y="88" width="13" height="13" rx="2.5" fill="#161b22" style="animation-delay:3.068s"/><rect class="c e" x="754" y="104" width="13" height="13" rx="2.5" fill="#161b22" style="animation-delay:3.104s"/><rect class="c e" x="754" y="120" width="13" height="13" rx="2.5" fill="#161b22" style="animation-delay:3.139s"/><rect class="c e" x="770" y="24" width="13" height="13" rx="2.5" fill="#161b22" style="animation-delay:2.990s"/><rect class="c e" x="770" y="40" width="13" height="13" rx="2.5" fill="#161b22" style="animation-delay:3.026s"/><rect class="c e" x="770" y="56" width="13" height="13" rx="2.5" fill="#161b22" style="animation-delay:3.061s"/><rect class="c e" x="770" y="72" width="13" height="13" rx="2.5" fill="#161b22" style="animation-delay:3.097s"/><rect class="c e" x="770" y="88" width="13" height="13" rx="2.5" fill="#161b22" style="animation-delay:3.133s"/><rect class="c e" x="770" y="104" width="13" height="13" rx="2.5" fill="#161b22" style="animation-delay:3.169s"/><rect class="c e" x="770" y="120" width="13" height="13" rx="2.5" fill="#161b22" style="animation-delay:3.204s"/><rect class="c e" x="786" y="24" width="13" height="13" rx="2.5" fill="#161b22" style="animation-delay:3.055s"/><rect class="c e" x="786" y="40" width="13" height="13" rx="2.5" fill="#161b22" style="animation-delay:3.091s"/><rect class="c e" x="786" y="56" width="13" height="13" rx="2.5" fill="#161b22" style="animation-delay:3.126s"/><rect class="c e" x="786" y="72" width="13" height="13" rx="2.5" fill="#161b22" style="animation-delay:3.162s"/><rect class="c e" x="786" y="88" width="13" height="13" rx="2.5" fill="#161b22" style="animation-delay:3.198s"/><rect class="c e" x="786" y="104" width="13" height="13" rx="2.5" fill="#161b22" style="animation-delay:3.234s"/><rect class="c e" x="786" y="120" width="13" height="13" rx="2.5" fill="#161b22" style="animation-delay:3.269s"/><rect class="c e" x="802" y="24" width="13" height="13" rx="2.5" fill="#161b22" style="animation-delay:3.120s"/><rect class="c e" x="802" y="40" width="13" height="13" rx="2.5" fill="#161b22" style="animation-delay:3.156s"/><rect class="c e" x="802" y="56" width="13" height="13" rx="2.5" fill="#161b22" style="animation-delay:3.191s"/><rect class="c e" x="802" y="72" width="13" height="13" rx="2.5" fill="#161b22" style="animation-delay:3.227s"/><rect class="c e" x="802" y="88" width="13" height="13" rx="2.5" fill="#161b22" style="animation-delay:3.263s"/><rect class="c e" x="802" y="104" width="13" height="13" rx="2.5" fill="#161b22" style="animation-delay:3.299s"/><rect class="c e" x="802" y="120" width="13" height="13" rx="2.5" fill="#161b22" style="animation-delay:3.334s"/><rect class="c e" x="818" y="24" width="13" height="13" rx="2.5" fill="#161b22" style="animation-delay:3.185s"/><rect class="c e" x="818" y="40" width="13" height="13" rx="2.5" fill="#161b22" style="animation-delay:3.221s"/><rect class="c e" x="818" y="56" width="13" height="13" rx="2.5" fill="#161b22" style="animation-delay:3.256s"/><rect class="c e" x="818" y="72" width="13" height="13" rx="2.5" fill="#161b22" style="animation-delay:3.292s"/><rect class="c e" x="818" y="88" width="13" height="13" rx="2.5" fill="#161b22" style="animation-delay:3.328s"/><rect class="c g" x="818" y="104" width="13" height="13" rx="2.5" fill="#0e4429" style="animation-delay:3.364s"/><rect class="c e" x="818" y="120" width="13" height="13" rx="2.5" fill="#161b22" style="animation-delay:3.399s"/><rect class="c g" x="834" y="24" width="13" height="13" rx="2.5" fill="#0e4429" style="animation-delay:3.250s"/><rect class="c e" x="834" y="40" width="13" height="13" rx="2.5" fill="#161b22" style="animation-delay:3.286s"/><rect class="c e" x="834" y="56" width="13" height="13" rx="2.5" fill="#161b22" style="animation-delay:3.321s"/><rect class="c e" x="834" y="72" width="13" height="13" rx="2.5" fill="#161b22" style="animation-delay:3.357s"/><rect class="c e" x="834" y="88" width="13" height="13" rx="2.5" fill="#161b22" style="animation-delay:3.393s"/><rect class="c e" x="834" y="104" width="13" height="13" rx="2.5" fill="#161b22" style="animation-delay:3.429s"/><rect class="c e" x="834" y="120" width="13" height="13" rx="2.5" fill="#161b22" style="animation-delay:3.464s"/><rect class="c e" x="850" y="24" width="13" height="13" rx="2.5" fill="#161b22" style="animation-delay:3.315s"/><rect class="c e" x="850" y="40" width="13" height="13" rx="2.5" fill="#161b22" style="animation-delay:3.351s"/><rect class="c g" x="850" y="56" width="13" height="13" rx="2.5" fill="#006d32" style="animation-delay:3.386s"/><rect class="c e" x="850" y="72" width="13" height="13" rx="2.5" fill="#161b22" style="animation-delay:3.422s"/><rect class="c e" x="850" y="88" width="13" height="13" rx="2.5" fill="#161b22" style="animation-delay:3.458s"/><rect class="c e" x="850" y="104" width="13" height="13" rx="2.5" fill="#161b22" style="animation-delay:3.494s"/><rect class="c e" x="850" y="120" width="13" height="13" rx="2.5" fill="#161b22" style="animation-delay:3.529s"/><rect class="c e" x="866" y="24" width="13" height="13" rx="2.5" fill="#161b22" style="animation-delay:3.380s"/><rect class="c e" x="866" y="40" width="13" height="13" rx="2.5" fill="#161b22" style="animation-delay:3.416s"/><rect class="c e" x="866" y="56" width="13" height="13" rx="2.5" fill="#161b22" style="animation-delay:3.451s"/><rect class="c e" x="866" y="72" width="13" height="13" rx="2.5" fill="#161b22" style="animation-delay:3.487s"/><rect class="c g" x="866" y="88" width="13" height="13" rx="2.5" fill="#39d353" style="animation-delay:3.523s"/>
<text class="cap" x="34" y="152">18 contributions in the last year</text>
</svg>